<?xml version="1.0" encoding="utf-8"?>
<!-- Generator: Adobe Illustrator 23.0.4, SVG Export Plug-In . SVG Version: 6.00 Build 0)  -->
<svg version="1.1" id="Layer_1" xmlns="http://www.w3.org/2000/svg" xmlns:xlink="http://www.w3.org/1999/xlink" x="0px" y="0px"
	 viewBox="0 0 38 36.6" style="enable-background:new 0 0 38 36.6;" xml:space="preserve">
<style type="text/css">
	.st0{fill:#169FDB;}
	.st1{fill:url(#Path_61_1_);}
</style>
<g id="Group_85" transform="translate(-836.962 85.074)">
	<path id="Union_1" class="st0" d="M860.5-48.5L860.5-48.5c-0.3-0.1-0.7-0.3-1-0.5c-0.8-0.5-1.6-1-2.4-1.6c-1.1-0.9-2.2-1.9-3.2-2.9
		c-1.2-1.4-2.3-2.8-3.3-4.4c1.1,1.2,2.3,2.2,3.6,3.1c1.3,0.9,2.6,1.6,3.8,2.4c0.9,0.6,1.8,1.1,2.5,1.5c2.2-1,4.2-2.3,6.1-3.7
		c0.7-0.6,1.5-1.2,2.1-1.8c0.6-0.6,1.1-1.2,1.6-1.9c-1.1,2.1-2.5,4.1-4.1,5.9c-0.8,0.9-1.7,1.6-2.6,2.4
		C862.6-49.5,861.6-49,860.5-48.5L860.5-48.5z M872.5-63.3c0.2-1.1,0.4-2.3,0.5-3.4c0.1-0.9,0.1-1.9,0-2.8c-0.1-0.8-0.2-1.6-0.4-2.4
		c-0.2-0.3-0.4-0.5-0.7-0.7c-0.6-0.7-1.2-1.2-2-1.7c-2.4-1.7-5.2-2.7-8.2-2.8c2.2,0.1,4.3,0.4,6.4,1.1c1.1,0.3,2.3,0.7,3.3,1.2
		c1.2,0.5,2.3,1.1,3.4,1.8l0,0c-0.1,1-0.3,2-0.6,2.9c-0.2,1.1-0.5,2.1-0.8,3.1C873.3-65.8,872.9-64.5,872.5-63.3L872.5-63.3z"/>
	
		<linearGradient id="Path_61_1_" gradientUnits="userSpaceOnUse" x1="20.9201" y1="456.1906" x2="19.9211" y2="456.1906" gradientTransform="matrix(26.566 0 0 -30.2284 307.7664 13719.9385)">
		<stop  offset="0.15" style="stop-color:#169FDB"/>
		<stop  offset="0.386" style="stop-color:#0B7DBD"/>
		<stop  offset="0.59" style="stop-color:#1465A7"/>
		<stop  offset="0.751" style="stop-color:#19569B"/>
		<stop  offset="0.85" style="stop-color:#1B5196"/>
	</linearGradient>
	<path id="Path_61" class="st1" d="M837.5-85.1c3.4,0.3,14.5,3.1,19.2,8.9c1.4,1.6,2.3,3.7,2.4,5.9c0,0.9-0.3,1.8-0.7,2.6
		c1.1,0.9,2.1,1.8,3,2.9c0.6,1,2.3,3.1,2.1,5.9c-0.1,2-1.4,3.9-2.1,4.1c-0.1,0,1.2-3.2-3.1-6.6c-3.1-2.4-8.6-4.3-15-6.3
		c-1.5-0.5,0.8-0.9,1.1-2.7c0.5-3.1-3.8-4.3-1.9-4c5.2,1,10.1,3,14.6,5.9c-0.6-1.7-1.8-3.1-3.4-4c-4.2-2.7-8.6-3.8-15.2-5.8
		c-1.5-0.4,0.8-0.9,1-2.7C839.9-84.1,835.5-85.2,837.5-85.1z"/>
</g>
</svg>
