<svg xmlns="http://www.w3.org/2000/svg" width="292.371" height="263.694" viewBox="0 0 292.371 263.694">
  <g id="Group_77" data-name="Group 77" transform="translate(-219.377 -204.564)">
    <g id="Group_68" data-name="Group 68">
      <path id="Path_95" data-name="Path 95" d="M388.322,278.2l-2.186-3.724-11.975,7.03,2.186,3.724-6.855,12.076-4.319.032.1,13.886,4.318-.031,7.03,11.975-2.132,3.756,12.076,6.855,2.132-3.756,13.886-.1,2.186,3.724,11.975-7.03-2.186-3.724,6.855-12.076,4.318-.031-.1-13.886-4.319.031-7.03-11.975,2.132-3.756-12.076-6.855-2.132,3.756Z" fill="#fff" stroke="#0c5ae5" stroke-linecap="round" stroke-linejoin="round" stroke-width="0.622"/>
      <path id="Path_96" data-name="Path 96" d="M395.373,292.952a11.109,11.109,0,1,1-11.028,11.19A11.108,11.108,0,0,1,395.373,292.952Z" fill="#fff" stroke="#0c5ae5" stroke-linecap="round" stroke-linejoin="round" stroke-width="0.622"/>
    </g>
    <path id="Path_97" data-name="Path 97" d="M251.685,234.714s-27.167,23.743,2.938,53.929" fill="none" stroke="#0c5ae5" stroke-linecap="round" stroke-linejoin="round" stroke-width="0.622" stroke-dasharray="6.218 3.109"/>
    <g id="Group_69" data-name="Group 69">
      <path id="Path_98" data-name="Path 98" d="M227.866,366.7c-3.916,6.673-12.353,13.079-6.311,22.359,4.168,6.4,12.543,8.675,9.283,17.768-1.293,3.605-3.764,6.326-3.021,10.384.647,3.527,3.409,6.314,5.843,8.745,2.093,2.089,5.446,4.061,7,6.616,2.537,4.172-.055,7.305-1.26,11.453-1.147,3.946-1.328,8.312.862,12,2.9,4.878,8.557,5.374,12.29,8.942,0,0,17.147,11.2,24.174-9.484,1.66-4.889,4.123-9.367,2.93-14.913-.9-4.193-4-7.272-7.528-9.386-3.7-2.221-7.734-2.756-8.711-7.54-.6-2.93.52-6.655.633-9.611.132-3.437.263-7.359-1.661-10.385-2.215-3.481-5.877-3.8-9.276-5.56-8.574-4.45-3.979-11.811-5.276-19.34-1.88-10.913-12.422-9.873-19.831-12.1Z" fill="#d4e6fc" stroke="#d4e6fc" stroke-miterlimit="10" stroke-width="0.155"/>
      <line id="Line_21" data-name="Line 21" x2="32.836" y2="83.697" transform="translate(234.689 383.891)" fill="#d4e6fc" stroke="#0c5ae5" stroke-linecap="round" stroke-linejoin="round" stroke-width="0.622"/>
      <line id="Line_22" data-name="Line 22" x2="12.969" y2="7.664" transform="translate(236.089 412.85)" fill="#d4e6fc" stroke="#0c5ae5" stroke-linecap="round" stroke-linejoin="round" stroke-width="0.622"/>
      <line id="Line_23" data-name="Line 23" y1="11.582" x2="7.013" transform="translate(261.408 440.414)" fill="#d4e6fc" stroke="#0c5ae5" stroke-linecap="round" stroke-linejoin="round" stroke-width="0.622"/>
      <line id="Line_24" data-name="Line 24" y1="10.517" x2="3.445" transform="translate(244.722 398.946)" fill="#d4e6fc" stroke="#0c5ae5" stroke-linecap="round" stroke-linejoin="round" stroke-width="0.622"/>
    </g>
    <g id="Group_72" data-name="Group 72">
      <path id="Path_99" data-name="Path 99" d="M256.426,365.031H322.6V325.763l-66.173,9.888Z" fill="#0c5ae5"/>
      <path id="Path_100" data-name="Path 100" d="M255.469,468l10.33-10.627h8.726V468Z" fill="#0c5ae5"/>
      <path id="Path_101" data-name="Path 101" d="M312.29,468l-6.685-10.627h-8.726V468Z" fill="#0c5ae5"/>
      <path id="Path_102" data-name="Path 102" d="M317.4,364.835V460.19H290.634V384.124h-3.486L282.24,460.19H255.469l4.908-76.066,1.248-19.289Z" fill="#fff" stroke="#0c5ae5" stroke-linecap="round" stroke-linejoin="round" stroke-width="0.616"/>
      <path id="Path_103" data-name="Path 103" d="M330.154,317.709c0-22.046-16.885-31.879-38.925-32.405q-.675-.016-1.367-.016c-33.156,0-43.616,24.1-45.187,28.26-3.5,9.259-13.34,38.3,18.371,51.727,9.542,4.041,16.355-5.76,21.451-8.382a122.088,122.088,0,0,1,12.081-5.712Z" fill="#0c5ae5"/>
      <path id="Path_104" data-name="Path 104" d="M315.465,328.693s3.541,16.124,23.313,12.643,13.99-33.887,13.99-33.887h-15.3l-.559,13.99S328.8,300.408,318.637,293.2C312.438,288.8,315.465,328.693,315.465,328.693Z" fill="#0c5ae5"/>
      <line id="Line_25" data-name="Line 25" y2="16.736" transform="translate(322.363 322.372)" fill="none" stroke="#fff" stroke-linecap="round" stroke-linejoin="round" stroke-width="0.622"/>
      <g id="Group_70" data-name="Group 70">
        <path id="Path_105" data-name="Path 105" d="M276.541,361.677l5.566,5.6,4.482,5.3-1.885,1.887,1.657,2.18-9.291,7.217L265,369.352Z" fill="#fff" stroke="#0c5ae5" stroke-linecap="round" stroke-linejoin="round" stroke-width="0.622"/>
        <line id="Line_26" data-name="Line 26" x1="3.994" y1="4.553" transform="translate(280.434 373.484)" fill="none" stroke="#0c5ae5" stroke-linecap="round" stroke-linejoin="round" stroke-width="0.622"/>
        <line id="Line_27" data-name="Line 27" x1="3.994" y1="4.553" transform="translate(277.815 375.277)" fill="none" stroke="#0c5ae5" stroke-linecap="round" stroke-linejoin="round" stroke-width="0.622"/>
        <line id="Line_28" data-name="Line 28" x1="3.995" y1="4.553" transform="translate(275.354 377.246)" fill="none" stroke="#0c5ae5" stroke-linecap="round" stroke-linejoin="round" stroke-width="0.622"/>
        <line id="Line_29" data-name="Line 29" x1="2.946" y1="3.403" transform="translate(281.81 371.155)" fill="none" stroke="#0c5ae5" stroke-linecap="round" stroke-linejoin="round" stroke-width="0.622"/>
      </g>
      <path id="Path_106" data-name="Path 106" d="M261.647,323.211c-8.394,17.908,17.33,37.634,17.33,37.634l-15.393,11.471s-20.682-17.5-21.744-29.342" fill="#0c5ae5"/>
      <path id="Path_107" data-name="Path 107" d="M288.006,275.479s-9.8,2.539-10.382-9.375,18.537-16.207,23.038-11.229S288.006,275.479,288.006,275.479Z" fill="#0c5ae5"/>
      <path id="Path_108" data-name="Path 108" d="M288.923,291.757h0a6.044,6.044,0,0,0,6.044-6.043V266.072H282.879v19.642A6.044,6.044,0,0,0,288.923,291.757Z" fill="#fff" stroke="#0c5ae5" stroke-linecap="round" stroke-linejoin="round" stroke-width="0.622"/>
      <path id="Path_109" data-name="Path 109" d="M278.633,267.055a3.36,3.36,0,0,0,3.078,3.616,3.247,3.247,0,0,0,.839-.041,8.958,8.958,0,1,0,1.471-5.968,3.3,3.3,0,0,0-1.773-.685A3.359,3.359,0,0,0,278.633,267.055Z" fill="#fff" stroke="#0c5ae5" stroke-linecap="round" stroke-linejoin="round" stroke-width="0.622"/>
      <path id="Path_110" data-name="Path 110" d="M283.616,268.755a1.523,1.523,0,0,0-1.652-1.6" fill="none" stroke="#0c5ae5" stroke-linecap="round" stroke-linejoin="round" stroke-width="0.622"/>
      <rect id="Rectangle_36" data-name="Rectangle 36" width="168.032" height="161.301" transform="translate(306.167 306.702)" fill="#d4e6fc"/>
      <g id="Group_71" data-name="Group 71">
        <path id="Path_111" data-name="Path 111" d="M339.88,300.853l.1,9.394,11.758-.061.243-9.243Z" fill="#fff" stroke="#0c5ae5" stroke-linecap="round" stroke-linejoin="round" stroke-width="0.622"/>
        <line id="Line_30" data-name="Line 30" y1="6.055" x2="0.157" transform="translate(342.357 304.026)" fill="none" stroke="#0c5ae5" stroke-linecap="round" stroke-linejoin="round" stroke-width="0.622"/>
        <line id="Line_31" data-name="Line 31" y1="6.055" x2="0.157" transform="translate(345.517 303.729)" fill="none" stroke="#0c5ae5" stroke-linecap="round" stroke-linejoin="round" stroke-width="0.622"/>
        <line id="Line_32" data-name="Line 32" y1="6.055" x2="0.157" transform="translate(348.668 303.668)" fill="none" stroke="#0c5ae5" stroke-linecap="round" stroke-linejoin="round" stroke-width="0.622"/>
      </g>
      <path id="Path_112" data-name="Path 112" d="M261.647,323.211c-8.394,17.908,17.33,37.634,17.33,37.634" fill="none" stroke="#fff" stroke-linecap="round" stroke-linejoin="round" stroke-width="0.622"/>
      <rect id="Rectangle_37" data-name="Rectangle 37" width="122.717" height="18.865" transform="translate(328.966 337.339)" fill="#fff"/>
      <rect id="Rectangle_38" data-name="Rectangle 38" width="122.717" height="18.865" transform="translate(328.966 364.132)" fill="#fff"/>
      <rect id="Rectangle_39" data-name="Rectangle 39" width="122.717" height="18.865" transform="translate(328.966 391.75)" fill="#fff"/>
      <rect id="Rectangle_40" data-name="Rectangle 40" width="73.876" height="18.865" transform="translate(353.386 424.027)" fill="#0c5ae5"/>
    </g>
    <circle id="Ellipse_20" data-name="Ellipse 20" cx="23.599" cy="23.599" r="23.599" transform="translate(425.157 247.745)" stroke-dasharray="6.218 3.109" stroke="#0c5ae5" stroke-linecap="round" stroke-linejoin="round" stroke-width="0.622" fill="#fff"/>
    <line id="Line_33" data-name="Line 33" x2="278.02" transform="translate(233.417 467.947)" fill="#d4e6fc" stroke="#0c5ae5" stroke-linecap="round" stroke-linejoin="round" stroke-width="0.622"/>
    <g id="Group_74" data-name="Group 74">
      <path id="Path_113" data-name="Path 113" d="M486.941,467.947h-41.16l-5.6-45.84h52.352Z" fill="#0c5ae5"/>
      <rect id="Rectangle_41" data-name="Rectangle 41" width="59.318" height="10.446" transform="translate(436.703 422.106)" stroke-width="0.622" stroke="#0c5ae5" stroke-linecap="round" stroke-linejoin="round" fill="#fff"/>
      <line id="Line_34" data-name="Line 34" y1="46.716" transform="translate(466.362 375.39)" fill="#d4e6fc" stroke="#0c5ae5" stroke-linecap="round" stroke-linejoin="round" stroke-width="0.622"/>
      <circle id="Ellipse_21" data-name="Ellipse 21" cx="26.055" cy="26.055" r="26.055" transform="translate(440.306 345.321)" stroke-width="0.622" stroke="#0c5ae5" stroke-linecap="round" stroke-linejoin="round" fill="#fff"/>
      <circle id="Ellipse_22" data-name="Ellipse 22" cx="20.941" cy="20.941" r="20.941" transform="translate(436.747 371.376) rotate(-45)" stroke-width="0.616" stroke="#0c5ae5" stroke-linecap="round" stroke-linejoin="round" fill="#fff"/>
      <path id="Path_114" data-name="Path 114" d="M466.362,421.99s0-19.866-20.152-22.33C444.531,416.23,466.362,421.99,466.362,421.99Z" fill="#0c5ae5"/>
      <line id="Line_35" data-name="Line 35" x2="11.123" y2="10.859" transform="translate(450.476 405.18)" fill="none" stroke="#fff" stroke-linecap="round" stroke-linejoin="round" stroke-width="0.622"/>
      <path id="Path_115" data-name="Path 115" d="M466.459,422.216s0-19.866,20.152-22.33C488.289,416.457,466.459,422.216,466.459,422.216Z" fill="#0c5ae5"/>
      <line id="Line_36" data-name="Line 36" x1="11.123" y2="10.859" transform="translate(471.221 405.406)" fill="none" stroke="#fff" stroke-linecap="round" stroke-linejoin="round" stroke-width="0.622"/>
      <g id="Group_73" data-name="Group 73">
        <path id="Path_116" data-name="Path 116" d="M457.935,368.4v5.786a8.6,8.6,0,1,0,17.2,0V368.4Zm9.617,8.85h-2.061v-4.385h2.061Z" fill="#0c5ae5"/>
        <path id="Path_117" data-name="Path 117" d="M471.9,366.741v-1.12a5.367,5.367,0,0,0-5.367-5.367h0a5.366,5.366,0,0,0-5.366,5.367v1.12" fill="none" stroke="#0c5ae5" stroke-miterlimit="10" stroke-width="2"/>
      </g>
    </g>
    <path id="Path_118" data-name="Path 118" d="M484.3,340.964s17.321-31.241-13.615-48.651" fill="none" stroke="#0c5ae5" stroke-linecap="round" stroke-linejoin="round" stroke-width="0.622" stroke-dasharray="6.218 3.109"/>
    <g id="Group_75" data-name="Group 75">
      <path id="Path_119" data-name="Path 119" d="M375.662,276.661l-.973-7.458-2.319.3-4.575-5.974.9-2.16-6.948-2.887-.894,2.16-7.462.973-1.421-1.855-5.975,4.571,1.425,1.859-2.887,6.944-2.319.3.974,7.458,2.319-.3,4.57,5.971-.9,2.16,6.948,2.887.9-2.16,7.458-.974,1.424,1.86,5.971-4.575-1.421-1.855,2.887-6.949Zm-15.948,4.358a6.017,6.017,0,1,1,5.19-6.743A6.017,6.017,0,0,1,359.714,281.019Z" fill="#0c5ae5"/>
    </g>
    <rect id="Rectangle_42" data-name="Rectangle 42" width="104.37" height="29.84" transform="translate(261.408 204.874)" fill="#fff" stroke-dasharray="6.218 3.109" stroke-linecap="round" stroke-linejoin="round" stroke-width="0.622" stroke="#0c5ae5"/>
    <circle id="Ellipse_23" data-name="Ellipse 23" cx="4.596" cy="4.596" r="4.596" transform="translate(272.463 215.198)" fill="#d4e6fc"/>
    <circle id="Ellipse_24" data-name="Ellipse 24" cx="4.596" cy="4.596" r="4.596" transform="translate(287.006 215.198)" fill="#d4e6fc"/>
    <circle id="Ellipse_25" data-name="Ellipse 25" cx="4.596" cy="4.596" r="4.596" transform="translate(301.549 215.198)" fill="#d4e6fc"/>
    <circle id="Ellipse_26" data-name="Ellipse 26" cx="4.596" cy="4.596" r="4.596" transform="translate(316.091 215.198)" fill="#d4e6fc"/>
    <circle id="Ellipse_27" data-name="Ellipse 27" cx="4.596" cy="4.596" r="4.596" transform="translate(330.634 215.198)" fill="#d4e6fc"/>
    <path id="Path_120" data-name="Path 120" d="M354.369,219.794a4.6,4.6,0,1,1-4.6-4.6A4.6,4.6,0,0,1,354.369,219.794Z" fill="#d4e6fc"/>
    <g id="Group_76" data-name="Group 76">
      <path id="Path_121" data-name="Path 121" d="M456.044,271.728a5.833,5.833,0,1,1,0-8.249A5.833,5.833,0,0,1,456.044,271.728Z" fill="#0c5ae5"/>
      <path id="Path_122" data-name="Path 122" d="M451.919,267.6l-10.143,10.143,3.172,3.172" fill="none" stroke="#0c5ae5" stroke-miterlimit="10" stroke-width="3"/>
      <line id="Line_37" data-name="Line 37" x1="2.33" y1="2.33" transform="translate(444.629 274.894)" fill="none" stroke="#0c5ae5" stroke-miterlimit="10" stroke-width="3"/>
      <path id="Path_123" data-name="Path 123" d="M454.112,269.8a3.1,3.1,0,1,1,0-4.386A3.1,3.1,0,0,1,454.112,269.8Z" fill="#fff"/>
    </g>
  </g>
</svg>
